<?xml version="1.0" ?><svg viewBox="0 0 256 256" xmlns="http://www.w3.org/2000/svg"><g><path d="m36.1 61.46c17.33-12.3 176.44-12.51 187.74 3.17s12.71 121.81-5.44 130.43-167.91 14.13-182.3-1.4-18.39-119.15 0-132.2z" fill="#191919"/><path d="m114.37 211.49c-72.65 0-81.22-9.25-84.13-12.39-13.24-14.23-16.63-71.42-13.24-104.55 2.24-21.33 7-34.28 14.47-39.61 14.9-10.58 86.61-10.51 100.83-10.39 23 .2 44.6 1.37 60.82 3.29 27.45 3.26 34.21 8 37.21 12.11 11.62 16.11 12.88 88.87 4.64 121-3 11.76-7.2 18.56-13.14 21.38-12.6 6-64.25 8.74-95.9 9.13q-6.03.03-11.56.03zm-72.46-23.33c4.1 3.35 30.12 8 85.37 7.24 44-.62 80.67-4.37 87.57-7.51 2.89-2.28 8.89-19.13 9.34-57.41.38-32.53-3.57-55.91-6.66-60.89-4.64-3.4-32.2-8.76-88-9.05-52.65-.3-84.12 4.29-88.79 7.46-1.83 1.29-5.74 8.84-7.74 28.2-1.73 16.75-1.56 38 .47 56.94 2.41 22.86 6.53 32.86 8.44 35.02z" fill="#191919"/></g><g><path d="m36.1 61.46c17.33-12.3 176.44-12.51 187.74 3.17s12.71 121.81-5.44 130.43-167.91 14.13-182.3-1.4-18.39-119.15 0-132.2z" fill="#e83a2a"/></g><path d="m129.73 104.25c1.74-1.37 9.58-1.4 10.7-.14s.42 18.8 1.12 19.57 2.81.4 3.71-.07c2.66-1.4 13.7-19.29 15.31-19.85s11.38-1.39 12.16-.14c1.19 1.89-15.31 22.16-15.31 24.33 0 3.15 17.69 25.31 16.78 26.42s-11.39 1.19-12.72.35-12.57-19.77-14.47-21c-1.68-1.12-4.26-.7-5 0s-.63 19.29-1.4 20.41-9.72 1.68-10.77.28-2.07-48.62-.11-50.16z" fill="#191919"/><path d="m166.89 163.29c-6.84 0-8.62-1.12-9.7-1.81-2-1.25-3-2.69-8.11-10.67-.25 4.45-.64 6-1.85 7.81-1.49 2.17-4.12 4.4-12.33 4.57-3.85.08-8.64-.3-11.43-4-1.54-2.06-2.47-3.3-2.8-29.71-.06-4.72-.08-11.53.11-17.2.28-8.15.72-11.72 4-14.3 4.3-3.38 17.09-4.27 21.62.84 1.52 1.71 2.17 3.61 2.46 6.94 4.61-6.59 6.14-8.52 9.06-9.53 2.44-.85 7.25-1.12 8.66-1.18 5-.22 10.12-.07 12.9 4.34 3.16 5-.1 10.06-2.48 13.74-1.8 2.78-4.17 6.08-6.46 9.28-1.32 1.84-2.93 4.1-4.12 5.84 1.84 2.89 5 7.33 7.11 10.3s4 5.58 5.39 7.73c2 3.09 5.46 8.25 1.47 13.16-2.51 3.09-6.4 3.76-12.27 3.86z" fill="#191919"/><path d="m88.73 114.41c3-2.61 12.94-11.7 15.81-11.7h5.68c1.53 0 2.92 0 2.92 2.42v39a2.14 2.14 0 0 0 2.27 2.25h5.28c1.68 0 1.68 8.56 0 8.56h-28.2c-1.51 0-1.62-8.55-.11-8.55h7.06a1.93 1.93 0 0 0 2.17-2.18c0-1.35 0-24 0-25.84s-.77-2.41-2.13-1.19a43.51 43.51 0 0 1 -4.94 4.28c-2.3 1.59-8.79-4.46-5.81-7.05z" fill="#191919"/><path d="m120.68 162.89h-28.19c-2.16 0-9.19-.9-9.19-12.5a20.9 20.9 0 0 1  .49-4.65c1.3-5.46 5.44-7.4 8.6-7.4h1.23c0-1.67 0-3.56 0-5.5v-3.16c-3.79 0-7.82-2.06-10.77-5.81-4.09-5.21-3.85-11.57.6-15.46l1-.9c11.34-10 15.65-12.79 20.07-12.79h5.7a11.57 11.57 0 0 1 6 1.34 10 10 0 0 1  4.94 9.08v33.22c2.22.14 8.81 1.46 8.81 12.26a20.34 20.34 0 0 1 -.57 5c-1.4 5.38-5.59 7.27-8.72 7.27z" fill="#191919"/><path d="m129.73 104.25c1.74-1.37 9.58-1.4 10.7-.14s.42 18.8 1.12 19.57 2.81.4 3.71-.07c2.66-1.4 13.7-19.29 15.31-19.85s11.38-1.39 12.16-.14c1.19 1.89-15.31 22.16-15.31 24.33 0 3.15 17.69 25.31 16.78 26.42s-11.39 1.19-12.72.35-12.57-19.77-14.47-21c-1.68-1.12-4.26-.7-5 0s-.63 19.29-1.4 20.41-9.72 1.68-10.77.28-2.07-48.62-.11-50.16z" fill="#fff"/><path d="m88.73 114.41c3-2.61 12.94-11.7 15.81-11.7h5.68c1.53 0 2.92 0 2.92 2.42v39a2.14 2.14 0 0 0 2.27 2.25h5.28c1.68 0 1.68 8.56 0 8.56h-28.2c-1.51 0-1.62-8.55-.11-8.55h7.06a1.93 1.93 0 0 0 2.17-2.18c0-1.35 0-24 0-25.84s-.77-2.41-2.13-1.19a43.51 43.51 0 0 1 -4.94 4.28c-2.3 1.59-8.79-4.46-5.81-7.05z" fill="#fff"/><path d="m71.75 111.82c-1.21-.66-9-2-10.66-1.7s-2.11 7-1.31 7.76 9.16 2 10.66 1.7 2.56-7.1 1.31-7.76z" fill="#191919"/><path d="m70.57 138.8c-1.38 0-8.9 2.24-10.28 3.29s1.27 7.19 2.34 7.52 9.06-2.37 10.28-3.29-.96-7.48-2.34-7.52z" fill="#191919"/><path d="m68.78 126.28c2.35.91 2.4 6.84-.22 7.58s-16.67.89-18.69.13-2.62-6.55.22-7.58 16.11-1.13 18.69-.13z" fill="#191919"/><path d="m186.06 111.82c1.21-.66 9-2 10.66-1.7s2.11 7 1.31 7.76-9.16 2-10.66 1.7-2.53-7.1-1.31-7.76z" fill="#191919"/><path d="m187.24 138.8c1.38 0 8.9 2.24 10.28 3.29s-1.27 7.19-2.34 7.52-9.06-2.37-10.28-3.29.96-7.48 2.34-7.52z" fill="#191919"/><path d="m189 126.28c-2.35.91-2.4 6.84.22 7.58s16.67.89 18.69.13 2.62-6.55-.22-7.58-16.08-1.13-18.69-.13z" fill="#191919"/></svg>