<?xml version="1.0" ?><!DOCTYPE svg  PUBLIC '-//W3C//DTD SVG 1.1//EN'  'http://www.w3.org/Graphics/SVG/1.1/DTD/svg11.dtd'><svg enable-background="new 0 0 75 75" height="75px" id="Calque_1" version="1.1" viewBox="0 0 75 75" width="75px" xml:space="preserve" xmlns="http://www.w3.org/2000/svg" xmlns:xlink="http://www.w3.org/1999/xlink"><g><rect fill="none" height="52" stroke="#6F9CA4" stroke-linecap="round" stroke-miterlimit="10" stroke-width="2" width="52" x="11" y="11.5"/><path d="   M20.666,39.686h28.299c3.518,0,6.37-2.86,6.37-6.373l0,0c0-3.52-2.86-6.373-6.373-6.373c-3.52,0-6.373,2.851-6.373,6.373    M33.03,33.314c0-1.76,1.414-3.186,3.186-3.186c1.76,0,3.186,1.414,3.186,3.186c0,1.76-1.429,3.186-3.196,3.186H23.772    M42.589,44.466c0,0.88,0.707,1.593,1.593,1.593l0,0c0.88,0,1.593-0.707,1.593-1.593l0,0c0-0.88-0.715-1.593-1.605-1.593H27.28" fill="none" id="cloud-wind" stroke="#6F9CA4" stroke-linecap="round" stroke-miterlimit="10" stroke-width="2"/></g></svg>